<svg width="657.9px" height="122px" xmlns="http://www.w3.org/2000/svg" viewBox="-78.94687499999998 14 657.89375 122" style="background: rgba(218, 232, 229, 0)" preserveAspectRatio="xMidYMid"><defs><linearGradient id="editing-gradient-gradient" x1="0" x2="1" y1="0.5" y2="0.5" gradientUnits="objectBoundingBox"><stop offset="0" stop-color="#4d695d"></stop><stop offset="1" stop-color="#83a79d"></stop></linearGradient></defs><g><g transform="matrix(1.4,0,0,1.7,-69.1,68.2)"><path d="M 10.9 21.9 L -3.1 21.9 L 5.1 -20.3 L 19.1 -20.3 L 10.9 21.9 Z M 66.6 23.2 L 66.6 23.2 L 66.6 23.2 Q 58.9 23.2 58.9 17.2 L 58.9 17.2 L 58.9 17.2 Q 58.9 14.6 60 9.5 L 60 9.5 L 60 9.5 Q 61.1 4.4 61.5 2.3 L 61.5 2.3 L 61.5 2.3 Q 62.4 -2.3 62.4 -3.8 L 62.4 -3.8 L 62.4 -3.8 Q 62.4 -7.1 60 -7.1 L 60 -7.1 L 60 -7.1 Q 58.4 -7.1 56.8 -4.9 L 56.8 -4.9 L 56.8 -4.9 Q 55.3 -2.7 54.6 1.8 L 54.6 1.8 L 50.6 21.9 L 38.1 23.2 L 41.6 5.8 L 41.6 5.8 Q 42.2 2.9 42.7 -0.3 L 42.7 -0.3 L 42.7 -0.3 Q 43.2 -3.6 43.2 -4.1 L 43.2 -4.1 L 43.2 -4.1 Q 43.2 -7.1 41 -7.1 L 41 -7.1 L 41 -7.1 Q 39.6 -7.1 38 -4.9 L 38 -4.9 L 38 -4.9 Q 36.4 -2.7 35.5 1.8 L 35.5 1.8 L 31.6 21.9 L 18.9 23.2 L 25.7 -10.7 L 36.1 -12 L 35 -5.5 L 35 -5.5 Q 36.7 -9 39.7 -10.5 L 39.7 -10.5 L 39.7 -10.5 Q 42.8 -12 47.6 -12 L 47.6 -12 L 47.6 -12 Q 50.4 -12 52.2 -10.7 L 52.2 -10.7 L 52.2 -10.7 Q 54 -9.3 54.5 -7.1 L 54.5 -7.1 L 54.5 -7.1 Q 55.6 -9.4 58.4 -10.7 L 58.4 -10.7 L 58.4 -10.7 Q 61.2 -12 64.6 -12 L 64.6 -12 L 64.6 -12 Q 68 -12 69.7 -11.3 L 69.7 -11.3 L 69.7 -11.3 Q 71.4 -10.5 72.4 -9.3 L 72.4 -9.3 L 72.4 -9.3 Q 74.2 -7.1 74.2 -3 L 74.2 -3 L 74.2 -3 Q 74.2 1.1 72.4 9.4 L 72.4 9.4 L 72.4 9.4 Q 71.6 13.5 71.6 15 L 71.6 15 L 71.6 15 Q 71.6 16.5 72.4 17.4 L 72.4 17.4 L 72.4 17.4 Q 73.3 18.3 74.6 18.5 L 74.6 18.5 L 74.6 18.5 Q 73.9 20.6 71.7 21.9 L 71.7 21.9 L 71.7 21.9 Q 69.5 23.2 66.6 23.2 Z M 82.3 20 L 82.3 20 L 82.3 20 Q 80.8 18.3 80.1 15.7 L 80.1 15.7 L 80.1 15.7 Q 79.4 13.1 79.4 8.8 L 79.4 8.8 L 79.4 8.8 Q 79.4 4.5 80.9 0.6 L 80.9 0.6 L 80.9 0.6 Q 82.4 -3.3 85.1 -6.1 L 85.1 -6.1 L 85.1 -6.1 Q 90.6 -12 99.6 -12 L 99.6 -12 L 99.6 -12 Q 102.9 -12 105.3 -10.9 L 105.3 -10.9 L 116.2 -12 L 111.5 13 L 111.5 13 Q 111.3 13.7 111.3 15.1 L 111.3 15.1 L 111.3 15.1 Q 111.3 16.5 112.2 17.4 L 112.2 17.4 L 112.2 17.4 Q 113 18.3 114.3 18.5 L 114.3 18.5 L 114.3 18.5 Q 113.7 20.6 111.3 21.9 L 111.3 21.9 L 111.3 21.9 Q 109 23.2 106.4 23.2 L 106.4 23.2 L 106.4 23.2 Q 103.7 23.2 102 22.2 L 102 22.2 L 102 22.2 Q 100.2 21.2 99.7 19.6 L 99.7 19.6 L 99.7 19.6 Q 98.7 21.2 96.5 22.2 L 96.5 22.2 L 96.5 22.2 Q 94.3 23.2 91.4 23.2 L 91.4 23.2 L 91.4 23.2 Q 88.5 23.2 86.1 22.4 L 86.1 22.4 L 86.1 22.4 Q 83.8 21.7 82.3 20 Z M 95.8 -6 L 95.8 -6 L 95.8 -6 Q 95 -4.8 94.4 -2.9 L 94.4 -2.9 L 94.4 -2.9 Q 93.8 -0.9 92.7 4.3 L 92.7 4.3 L 92.7 4.3 Q 91.6 9.5 91.6 13.2 L 91.6 13.2 L 91.6 13.2 Q 91.6 16.9 92.2 18 L 92.2 18 L 92.2 18 Q 92.8 19.1 93.8 19.1 L 93.8 19.1 L 93.8 19.1 Q 95.9 19.1 97.4 17.2 L 97.4 17.2 L 97.4 17.2 Q 98.9 15.2 99.5 11.7 L 99.5 11.7 L 102.8 -7 L 102.8 -7 Q 101.5 -8.2 99.9 -8.2 L 99.9 -8.2 L 99.9 -8.2 Q 98.4 -8.2 97.4 -7.6 L 97.4 -7.6 L 97.4 -7.6 Q 96.5 -7.1 95.8 -6 Z M 124 -4.8 L 124 -4.8 L 124 -4.8 Q 126.1 -7.9 129.4 -9.9 L 129.4 -9.9 L 129.4 -9.9 Q 132.7 -12 136.8 -12 L 136.8 -12 L 136.8 -12 Q 140.8 -12 142.7 -10.7 L 142.7 -10.7 L 155.3 -12 L 150.9 12.6 L 150.9 12.6 Q 148.7 25.1 143.9 30.1 L 143.9 30.1 L 143.9 30.1 Q 139.4 34.7 130.6 34.7 L 130.6 34.7 L 130.6 34.7 Q 123.8 34.7 120 32.6 L 120 32.6 L 120 32.6 Q 116.2 30.5 116.2 27 L 116.2 27 L 116.2 27 Q 116.2 24.4 118.1 22.9 L 118.1 22.9 L 118.1 22.9 Q 120.1 21.3 123.2 21.3 L 123.2 21.3 L 123.2 21.3 Q 125.9 21.3 127.9 22.6 L 127.9 22.6 L 127.9 22.6 Q 129.2 23.2 129.7 24.1 L 129.7 24.1 L 129.7 24.1 Q 128.3 25.4 128.3 27.5 L 128.3 27.5 L 128.3 27.5 Q 128.3 30.2 130.8 30.2 L 130.8 30.2 L 130.8 30.2 Q 135.1 30.2 137.5 20.1 L 137.5 20.1 L 137.5 20.1 Q 138.2 17.4 138.8 14.6 L 138.8 14.6 L 138.8 14.6 Q 135.9 18.1 129.4 18.1 L 129.4 18.1 L 129.4 18.1 Q 124.9 18.1 122.2 16 L 122.2 16 L 122.2 16 Q 119.6 13.8 119.6 8.7 L 119.6 8.7 L 119.6 8.7 Q 119.6 5.5 120.7 1.9 L 120.7 1.9 L 120.7 1.9 Q 121.8 -1.8 124 -4.8 Z M 132.3 8.9 L 132.3 8.9 L 132.3 8.9 Q 132.3 13.2 134.5 13.2 L 134.5 13.2 L 134.5 13.2 Q 136.1 13.2 137.5 11.6 L 137.5 11.6 L 137.5 11.6 Q 138.7 10.2 139.1 8.2 L 139.1 8.2 L 142.4 -8.2 L 142.4 -8.2 Q 142.1 -8.3 141.8 -8.4 L 141.8 -8.4 L 141.8 -8.4 Q 141.1 -8.7 140.3 -8.7 L 140.3 -8.7 L 140.3 -8.7 Q 136.4 -8.7 134.1 -2.3 L 134.1 -2.3 L 134.1 -2.3 Q 132.3 2.7 132.3 8.9 Z M 183.7 11.1 L 183.7 11.1 L 183.7 11.1 Q 185.3 12.2 185.3 14.6 L 185.3 14.6 L 185.3 14.6 Q 185.3 17 184.1 18.5 L 184.1 18.5 L 184.1 18.5 Q 182.8 20.1 180.9 21.1 L 180.9 21.1 L 180.9 21.1 Q 176.8 23.2 172.4 23.2 L 172.4 23.2 L 172.4 23.2 Q 167.9 23.2 165.3 22.2 L 165.3 22.2 L 165.3 22.2 Q 162.8 21.3 161 19.5 L 161 19.5 L 161 19.5 Q 157.6 16.1 157.6 9.9 L 157.6 9.9 L 157.6 9.9 Q 157.6 0.2 162.9 -5.7 L 162.9 -5.7 L 162.9 -5.7 Q 168.5 -12 178.3 -12 L 178.3 -12 L 178.3 -12 Q 184.4 -12 187.4 -9.4 L 187.4 -9.4 L 187.4 -9.4 Q 189.6 -7.5 189.6 -4.4 L 189.6 -4.4 L 189.6 -4.4 Q 189.6 6.9 170.2 6.9 L 170.2 6.9 L 170.2 6.9 Q 169.9 8.5 169.9 10 L 169.9 10 L 169.9 10 Q 169.9 12.9 171.2 14 L 171.2 14 L 171.2 14 Q 172.5 15.1 175 15.1 L 175 15.1 L 175 15.1 Q 177.4 15.1 180 14 L 180 14 L 180 14 Q 182.6 12.9 183.7 11.1 Z M 170.6 4.1 L 170.6 4.1 L 170.6 4.1 Q 175.2 4.1 177.8 1.3 L 177.8 1.3 L 177.8 1.3 Q 180.4 -1.4 180.4 -5.7 L 180.4 -5.7 L 180.4 -5.7 Q 180.4 -7.1 179.9 -7.9 L 179.9 -7.9 L 179.9 -7.9 Q 179.3 -8.7 178.2 -8.7 L 178.2 -8.7 L 178.2 -8.7 Q 177.2 -8.7 176.2 -8.3 L 176.2 -8.3 L 176.2 -8.3 Q 175.3 -7.9 174.3 -6.5 L 174.3 -6.5 L 174.3 -6.5 Q 172 -3.3 170.6 4.1 Z M 210.9 -0.5 L 210.9 -0.5 L 210.9 -0.5 Q 211.8 -2.9 211.8 -5 L 211.8 -5 L 211.8 -5 Q 211.8 -8.7 208.8 -8.7 L 208.8 -8.7 L 208.8 -8.7 Q 207.2 -8.7 205.9 -7.3 L 205.9 -7.3 L 205.9 -7.3 Q 204.5 -5.9 204.5 -4.1 L 204.5 -4.1 L 204.5 -4.1 Q 204.5 -2.8 205.6 -1.8 L 205.6 -1.8 L 205.6 -1.8 Q 207 -0.3 210.8 2 L 210.8 2 L 210.8 2 Q 214.6 4.3 216 6.1 L 216 6.1 L 216 6.1 Q 217.5 8 217.5 10.6 L 217.5 10.6 L 217.5 10.6 Q 217.5 13.2 216.2 15.6 L 216.2 15.6 L 216.2 15.6 Q 215 18 212.7 19.6 L 212.7 19.6 L 212.7 19.6 Q 207.9 23.2 200.3 23.2 L 200.3 23.2 L 200.3 23.2 Q 196.1 23.2 192.9 21 L 192.9 21 L 192.9 21 Q 189.7 18.9 189.7 16.4 L 189.7 16.4 L 189.7 16.4 Q 189.7 13.9 191.5 12.5 L 191.5 12.5 L 191.5 12.5 Q 193.3 11 196 11 L 196 11 L 196 11 Q 198.7 11 200.4 12 L 200.4 12 L 200.4 12 Q 199.6 14.1 199.6 15.5 L 199.6 15.5 L 199.6 15.5 Q 199.6 19.7 203.1 19.7 L 203.1 19.7 L 203.1 19.7 Q 204.7 19.7 205.7 18.8 L 205.7 18.8 L 205.7 18.8 Q 206.7 17.8 206.7 16.2 L 206.7 16.2 L 206.7 16.2 Q 206.7 12.9 201.2 9.4 L 201.2 9.4 L 201.2 9.4 Q 196.7 6.5 195.7 5.3 L 195.7 5.3 L 195.7 5.3 Q 194 3.3 194 0.7 L 194 0.7 L 194 0.7 Q 194 -1.8 195.2 -4.3 L 195.2 -4.3 L 195.2 -4.3 Q 196.4 -6.7 198.7 -8.4 L 198.7 -8.4 L 198.7 -8.4 Q 203.3 -12 211.5 -12 L 211.5 -12 L 211.5 -12 Q 215.6 -12 218.1 -10.3 L 218.1 -10.3 L 218.1 -10.3 Q 220.5 -8.7 220.5 -5.9 L 220.5 -5.9 L 220.5 -5.9 Q 220.5 -3 218.8 -1.4 L 218.8 -1.4 L 218.8 -1.4 Q 217.2 0.2 214.1 0.2 L 214.1 0.2 L 214.1 0.2 Q 212 0.2 210.9 -0.5 Z M 262 1.3 L 274.9 0.2 L 274.9 0.2 Q 270.3 10.3 270.3 22 L 270.3 22 L 270.3 22 Q 268.6 23.2 266.1 23.2 L 266.1 23.2 L 266.1 23.2 Q 263.6 23.2 262 22 L 262 22 L 262 22 Q 260.4 20.8 260 19.6 L 260 19.6 L 260 19.6 Q 258.4 21.3 255.8 22.2 L 255.8 22.2 L 255.8 22.2 Q 253.2 23.2 250.5 23.2 L 250.5 23.2 L 250.5 23.2 Q 247.7 23.2 245.3 22.3 L 245.3 22.3 L 245.3 22.3 Q 242.9 21.4 241.1 19.4 L 241.1 19.4 L 241.1 19.4 Q 237 15.1 237 6.8 L 237 6.8 L 237 6.8 Q 237 -6 243.8 -13.7 L 243.8 -13.7 L 243.8 -13.7 Q 250.9 -21.6 263.4 -21.6 L 263.4 -21.6 L 263.4 -21.6 Q 272 -21.6 275.1 -17.1 L 275.1 -17.1 L 275.1 -17.1 Q 276 -15.7 276 -14 L 276 -14 L 276 -14 Q 276 -12.3 275.3 -10.9 L 275.3 -10.9 L 275.3 -10.9 Q 274.6 -9.4 273.4 -8.3 L 273.4 -8.3 L 273.4 -8.3 Q 270.7 -5.7 267.3 -5.7 L 267.3 -5.7 L 267.3 -5.7 Q 265.9 -5.7 264.6 -6.2 L 264.6 -6.2 L 264.6 -6.2 Q 264.9 -8.1 264.9 -10.3 L 264.9 -10.3 L 264.9 -10.3 Q 264.9 -12.6 264.7 -13.6 L 264.7 -13.6 L 264.7 -13.6 Q 264.6 -14.6 264.2 -15.5 L 264.2 -15.5 L 264.2 -15.5 Q 263.4 -17.2 261.5 -17.2 L 261.5 -17.2 L 261.5 -17.2 Q 259.7 -17.2 257.7 -15.2 L 257.7 -15.2 L 257.7 -15.2 Q 255.7 -13.3 254.1 -10.1 L 254.1 -10.1 L 254.1 -10.1 Q 250.6 -2.9 250.6 5.7 L 250.6 5.7 L 250.6 5.7 Q 250.6 9.7 252.1 12.5 L 252.1 12.5 L 252.1 12.5 Q 253.8 15.6 256.7 15.6 L 256.7 15.6 L 256.7 15.6 Q 257.7 15.6 258.7 15.1 L 258.7 15.1 L 258.7 15.1 Q 259.6 14.6 260 14.2 L 260 14.2 L 262 1.3 Z M 280.9 20 L 280.9 20 L 280.9 20 Q 279.4 18.3 278.7 15.7 L 278.7 15.7 L 278.7 15.7 Q 278 13.1 278 8.8 L 278 8.8 L 278 8.8 Q 278 4.5 279.5 0.6 L 279.5 0.6 L 279.5 0.6 Q 281 -3.3 283.6 -6.1 L 283.6 -6.1 L 283.6 -6.1 Q 289.2 -12 298.2 -12 L 298.2 -12 L 298.2 -12 Q 301.5 -12 303.9 -10.9 L 303.9 -10.9 L 314.8 -12 L 310.1 13 L 310.1 13 Q 309.9 13.7 309.9 15.1 L 309.9 15.1 L 309.9 15.1 Q 309.9 16.5 310.8 17.4 L 310.8 17.4 L 310.8 17.4 Q 311.6 18.3 312.9 18.5 L 312.9 18.5 L 312.9 18.5 Q 312.3 20.6 309.9 21.9 L 309.9 21.9 L 309.9 21.9 Q 307.6 23.2 305 23.2 L 305 23.2 L 305 23.2 Q 302.3 23.2 300.6 22.2 L 300.6 22.2 L 300.6 22.2 Q 298.8 21.2 298.3 19.6 L 298.3 19.6 L 298.3 19.6 Q 297.3 21.2 295.1 22.2 L 295.1 22.2 L 295.1 22.2 Q 292.9 23.2 290 23.2 L 290 23.2 L 290 23.2 Q 287.1 23.2 284.7 22.4 L 284.7 22.4 L 284.7 22.4 Q 282.4 21.7 280.9 20 Z M 294.4 -6 L 294.4 -6 L 294.4 -6 Q 293.6 -4.8 293 -2.9 L 293 -2.9 L 293 -2.9 Q 292.4 -0.9 291.3 4.3 L 291.3 4.3 L 291.3 4.3 Q 290.2 9.5 290.2 13.2 L 290.2 13.2 L 290.2 13.2 Q 290.2 16.9 290.8 18 L 290.8 18 L 290.8 18 Q 291.4 19.1 292.4 19.1 L 292.4 19.1 L 292.4 19.1 Q 294.5 19.1 296 17.2 L 296 17.2 L 296 17.2 Q 297.5 15.2 298 11.7 L 298 11.7 L 301.4 -7 L 301.4 -7 Q 300.1 -8.2 298.5 -8.2 L 298.5 -8.2 L 298.5 -8.2 Q 297 -8.2 296 -7.6 L 296 -7.6 L 296 -7.6 Q 295.1 -7.1 294.4 -6 Z M 333.6 18.4 L 333.6 18.4 L 333.6 18.4 Q 331.6 23.2 325.2 23.2 L 325.2 23.2 L 325.2 23.2 Q 322 23.2 320 21 L 320 21 L 320 21 Q 318.3 19.1 318.3 17 L 318.3 17 L 318.3 17 Q 318.3 12.2 320.6 1.7 L 320.6 1.7 L 325.2 -22.9 L 338.2 -24.2 L 332 8.2 L 332 8.2 Q 330.9 13 330.9 14.6 L 330.9 14.6 L 330.9 14.6 Q 330.9 18.3 333.6 18.4 Z M 354.3 18.4 L 354.3 18.4 L 354.3 18.4 Q 352.3 23.2 346 23.2 L 346 23.2 L 346 23.2 Q 342.8 23.2 340.7 21 L 340.7 21 L 340.7 21 Q 339.1 19.1 339.1 17 L 339.1 17 L 339.1 17 Q 339.1 12.2 341.3 1.7 L 341.3 1.7 L 346 -22.9 L 359 -24.2 L 352.8 8.2 L 352.8 8.2 Q 351.7 13 351.7 14.6 L 351.7 14.6 L 351.7 14.6 Q 351.7 18.3 354.3 18.4 Z M 385.7 11.1 L 385.7 11.1 L 385.7 11.1 Q 387.3 12.2 387.3 14.6 L 387.3 14.6 L 387.3 14.6 Q 387.3 17 386 18.5 L 386 18.5 L 386 18.5 Q 384.8 20.1 382.8 21.1 L 382.8 21.1 L 382.8 21.1 Q 378.8 23.2 374.3 23.2 L 374.3 23.2 L 374.3 23.2 Q 369.9 23.2 367.3 22.2 L 367.3 22.2 L 367.3 22.2 Q 364.7 21.3 363 19.5 L 363 19.5 L 363 19.5 Q 359.6 16.1 359.6 9.9 L 359.6 9.9 L 359.6 9.9 Q 359.6 0.2 364.9 -5.7 L 364.9 -5.7 L 364.9 -5.7 Q 370.5 -12 380.3 -12 L 380.3 -12 L 380.3 -12 Q 386.4 -12 389.4 -9.4 L 389.4 -9.4 L 389.4 -9.4 Q 391.6 -7.5 391.6 -4.4 L 391.6 -4.4 L 391.6 -4.4 Q 391.6 6.9 372.2 6.9 L 372.2 6.9 L 372.2 6.9 Q 371.9 8.5 371.9 10 L 371.9 10 L 371.9 10 Q 371.9 12.9 373.2 14 L 373.2 14 L 373.2 14 Q 374.5 15.1 377 15.1 L 377 15.1 L 377 15.1 Q 379.4 15.1 382 14 L 382 14 L 382 14 Q 384.6 12.9 385.7 11.1 Z M 372.6 4.1 L 372.6 4.1 L 372.6 4.1 Q 377.2 4.1 379.8 1.3 L 379.8 1.3 L 379.8 1.3 Q 382.4 -1.4 382.4 -5.7 L 382.4 -5.7 L 382.4 -5.7 Q 382.4 -7.1 381.9 -7.9 L 381.9 -7.9 L 381.9 -7.9 Q 381.3 -8.7 380.2 -8.7 L 380.2 -8.7 L 380.2 -8.7 Q 379.1 -8.7 378.2 -8.3 L 378.2 -8.3 L 378.2 -8.3 Q 377.3 -7.9 376.3 -6.5 L 376.3 -6.5 L 376.3 -6.5 Q 374 -3.3 372.6 4.1 Z M 413.8 3.9 L 413.8 3.9 L 413.8 3.9 Q 416.1 -0.2 416.1 -4.3 L 416.1 -4.3 L 416.1 -4.3 Q 416.1 -7.1 414.1 -7.1 L 414.1 -7.1 L 414.1 -7.1 Q 412.6 -7.1 411 -4.4 L 411 -4.4 L 411 -4.4 Q 409.3 -1.8 408.8 1.6 L 408.8 1.6 L 405.5 21.9 L 392.3 23.2 L 398.8 -10.7 L 409.3 -12 L 408.2 -5.5 L 408.2 -5.5 Q 411.3 -12 418.4 -12 L 418.4 -12 L 418.4 -12 Q 422.1 -12 424.1 -10.1 L 424.1 -10.1 L 424.1 -10.1 Q 426.1 -8.2 426.1 -4.2 L 426.1 -4.2 L 426.1 -4.2 Q 426.1 -0.3 423.5 2.2 L 423.5 2.2 L 423.5 2.2 Q 420.9 4.7 416.5 4.7 L 416.5 4.7 L 416.5 4.7 Q 414.6 4.7 413.8 3.9 Z M 447.5 14.7 L 447.5 14.7 L 447.5 14.7 Q 444.2 18.1 438.1 18.1 L 438.1 18.1 L 438.1 18.1 Q 430.5 18.1 428.9 12.6 L 428.9 12.6 L 428.9 12.6 Q 428.4 10.9 428.4 9.1 L 428.4 9.1 L 428.4 9.1 Q 428.4 7.2 428.7 5.3 L 428.7 5.3 L 431.7 -10.7 L 444.7 -12 L 441.2 6.6 L 441.2 6.6 Q 441.1 7.5 440.9 8.4 L 440.9 8.4 L 440.9 8.4 Q 440.7 9.3 440.7 10.2 L 440.7 10.2 L 440.7 10.2 Q 440.7 11.1 441 11.7 L 441 11.7 L 441 11.7 Q 441.3 12.3 441.8 12.7 L 441.8 12.7 L 441.8 12.7 Q 442.6 13.2 443.9 13.2 L 443.9 13.2 L 443.9 13.2 Q 445.3 13.2 446.5 11.6 L 446.5 11.6 L 446.5 11.6 Q 447.7 9.9 448.3 7 L 448.3 7 L 451.8 -10.7 L 464.4 -12 L 459.6 13.2 L 459.6 13.2 Q 457.2 25.4 452.4 30.3 L 452.4 30.3 L 452.4 30.3 Q 449.9 32.8 446.6 33.8 L 446.6 33.8 L 446.6 33.8 Q 443.4 34.8 439.2 34.8 L 439.2 34.8 L 439.2 34.8 Q 432.5 34.8 428.7 32.7 L 428.7 32.7 L 428.7 32.7 Q 424.8 30.6 424.8 27 L 424.8 27 L 424.8 27 Q 424.8 24.4 426.8 22.9 L 426.8 22.9 L 426.8 22.9 Q 428.8 21.4 431.9 21.4 L 431.9 21.4 L 431.9 21.4 Q 434.6 21.4 436.6 22.6 L 436.6 22.6 L 436.6 22.6 Q 437.8 23.3 438.4 24.2 L 438.4 24.2 L 438.4 24.2 Q 436.9 25.4 436.9 27.6 L 436.9 27.6 L 436.9 27.6 Q 436.9 30.4 439.5 30.4 L 439.5 30.4 L 439.5 30.4 Q 443.7 30.4 446.1 20.6 L 446.1 20.6 L 446.1 20.6 Q 446.8 17.8 447.5 14.7 Z" fill="url(#editing-gradient-gradient)"></path></g></g><style>text {
  font-size: 64px;
  font-family: Arial Black;
  dominant-baseline: central;
  text-anchor: middle;
}</style></svg>